<svg width="216" height="58" viewBox="0 0 216 58" fill="none" xmlns="http://www.w3.org/2000/svg">
    <path d="M22.199 56.6079H22.1472" stroke="#2787F5" stroke-width="1.31964" stroke-miterlimit="10"/>
    <path d="M22.0525 57.0615H5.106C2.96525 57.0615 1.229 55.8253 1.229 54.301V20.1684C1.229 18.6441 2.96525 17.4079 5.106 17.4079H8.51713V12.0843H4.52877C4.04699 12.0843 3.65611 11.8053 3.65611 11.4628V10.0429C3.65611 9.69811 4.04699 9.42139 4.52877 9.42139H38.8559C39.3377 9.42139 39.7286 9.69811 39.7286 10.0429V11.4628C39.7286 11.8053 39.3377 12.0843 38.8559 12.0843H34.8676V17.4079H38.2787C40.4194 17.4079 42.1557 18.6441 42.1557 20.1684V54.2988C42.1557 55.823 40.4194 57.0592 38.2787 57.0592H25.2273" stroke="#2787F5" stroke-width="1.31964" stroke-miterlimit="10"/>
    <path d="M30.9156 9.9614C30.9156 12.9124 29.5248 15.539 27.3613 17.2243C25.6614 19.259 24.7047 21.5544 24.4933 24.1062C24.482 24.2196 24.4751 24.3331 24.4683 24.4465C24.2865 25.812 23.1139 26.8667 21.6935 26.8667C20.2732 26.8667 19.1005 25.812 18.9187 24.4465C18.9119 24.3331 18.9051 24.2196 18.8937 24.1062C18.6824 21.5544 17.7256 19.259 16.0257 17.2243C13.8622 15.539 12.4714 12.9124 12.4714 9.9614C12.4714 4.87825 16.6007 0.756836 21.6935 0.756836C26.7863 0.756836 30.9156 4.87825 30.9156 9.9614Z" stroke="#2787F5" stroke-width="1.31964" stroke-miterlimit="10"/>
    <path d="M20.7888 42.2388C11.7395 40.0137 6.86934 34.2296 5.43763 25.5127C5.37172 25.1135 5.73988 24.7778 6.13076 24.8776C14.7052 27.0642 20.0525 32.415 21.4774 41.6083C21.5388 42.0007 21.1752 42.3318 20.7888 42.2366V42.2388Z" stroke="#2787F5" stroke-width="1.31964" stroke-miterlimit="10"/>
    <path d="M22.5775 47.4105C30.3133 45.4281 34.438 40.4311 35.5925 32.9504C35.6448 32.6079 35.3266 32.3244 34.9925 32.4128C27.6635 34.359 23.1275 38.9862 21.9821 46.8775C21.9321 47.2154 22.2457 47.4967 22.5775 47.4105Z" stroke="#2787F5" stroke-width="1.31964" stroke-miterlimit="10"/>
    <path d="M21.6934 26.8667V56.7192" stroke="#2787F5" stroke-width="1.31964" stroke-linecap="round" stroke-linejoin="round"/>
    <path d="M17.921 20.2457C20.4367 21.1349 22.9524 21.0124 25.4659 20.2457L26.1499 18.9233C23.2979 19.6401 20.3435 19.5947 17.3074 18.9233" stroke="#2787F5" stroke-width="1.31964" stroke-miterlimit="10"/>
    <path d="M18.7461 22.9541C20.5346 24.0156 22.5367 23.7911 24.6434 22.9541" stroke="#2787F5" stroke-width="1.31964" stroke-miterlimit="10"/>
    <path d="M16.0259 17.2246C19.6324 18.0979 23.4322 17.9981 27.3614 17.2246" stroke="#2787F5" stroke-width="1.31964" stroke-miterlimit="10"/>
    <path d="M10.7258 30.707C15.1164 33.1431 19.0502 38.2195 21.6819 43.1733" stroke="#2787F5" stroke-width="1.31964" stroke-linecap="round" stroke-linejoin="round"/>
    <path d="M30.8859 37.3892C26.9711 39.7679 24.1122 43.7308 21.7957 48.5036" stroke="#2787F5" stroke-width="1.31964" stroke-linecap="round" stroke-linejoin="round"/>
    <path d="M21.7297 17.533L19.2981 13.9537L23.6228 11.9917" stroke="#2787F5" stroke-width="1.31964" stroke-linecap="round" stroke-linejoin="round"/>
    <path d="M63.128 18.252C61.1 18.252 59.552 17.688 58.484 16.56C57.428 15.432 56.9 13.83 56.9 11.754C56.9 10.722 57.062 9.804 57.386 9C57.71 8.184 58.154 7.5 58.718 6.948C59.282 6.384 59.954 5.958 60.734 5.67C61.514 5.382 62.36 5.238 63.272 5.238C63.8 5.238 64.28 5.28 64.712 5.364C65.144 5.436 65.522 5.526 65.846 5.634C66.17 5.73 66.44 5.832 66.656 5.94C66.872 6.048 67.028 6.132 67.124 6.192L66.314 8.46C65.93 8.256 65.48 8.082 64.964 7.938C64.46 7.794 63.884 7.722 63.236 7.722C62.804 7.722 62.378 7.794 61.958 7.938C61.55 8.082 61.184 8.316 60.86 8.64C60.548 8.952 60.296 9.36 60.104 9.864C59.912 10.368 59.816 10.98 59.816 11.7C59.816 12.276 59.876 12.816 59.996 13.32C60.128 13.812 60.332 14.238 60.608 14.598C60.896 14.958 61.268 15.246 61.724 15.462C62.18 15.666 62.732 15.768 63.38 15.768C63.788 15.768 64.154 15.744 64.478 15.696C64.802 15.648 65.09 15.594 65.342 15.534C65.594 15.462 65.816 15.384 66.008 15.3C66.2 15.216 66.374 15.138 66.53 15.066L67.304 17.316C66.908 17.556 66.35 17.772 65.63 17.964C64.91 18.156 64.076 18.252 63.128 18.252ZM76.7619 10.728H73.7379V18H71.0559V10.728H68.0319V8.532H76.7619V10.728ZM84.4549 13.338C84.4549 12.51 84.2689 11.85 83.8969 11.358C83.5249 10.854 82.9729 10.602 82.2409 10.602C82.0009 10.602 81.7789 10.614 81.5749 10.638C81.3709 10.65 81.2029 10.668 81.0709 10.692V15.534C81.2389 15.642 81.4549 15.732 81.7189 15.804C81.9949 15.876 82.2709 15.912 82.5469 15.912C83.8189 15.912 84.4549 15.054 84.4549 13.338ZM87.1909 13.266C87.1909 13.998 87.1009 14.664 86.9209 15.264C86.7409 15.864 86.4769 16.38 86.1289 16.812C85.7809 17.244 85.3489 17.58 84.8329 17.82C84.3169 18.06 83.7229 18.18 83.0509 18.18C82.6789 18.18 82.3309 18.144 82.0069 18.072C81.6829 18 81.3709 17.898 81.0709 17.766V21.33H78.3889V8.856C78.6289 8.784 78.9049 8.718 79.2169 8.658C79.5289 8.586 79.8529 8.526 80.1889 8.478C80.5369 8.43 80.8849 8.394 81.2329 8.37C81.5929 8.334 81.9349 8.316 82.2589 8.316C83.0389 8.316 83.7349 8.436 84.3469 8.676C84.9589 8.904 85.4749 9.234 85.8949 9.666C86.3149 10.086 86.6329 10.602 86.8489 11.214C87.0769 11.826 87.1909 12.51 87.1909 13.266ZM92.8702 16.128C93.1342 16.128 93.3862 16.122 93.6262 16.11C93.8662 16.098 94.0582 16.08 94.2022 16.056V14.022C94.0942 13.998 93.9322 13.974 93.7162 13.95C93.5002 13.926 93.3022 13.914 93.1222 13.914C92.8702 13.914 92.6302 13.932 92.4022 13.968C92.1862 13.992 91.9942 14.046 91.8262 14.13C91.6582 14.214 91.5262 14.328 91.4302 14.472C91.3342 14.616 91.2862 14.796 91.2862 15.012C91.2862 15.432 91.4242 15.726 91.7002 15.894C91.9882 16.05 92.3782 16.128 92.8702 16.128ZM92.6542 8.28C93.4462 8.28 94.1062 8.37 94.6342 8.55C95.1622 8.73 95.5822 8.988 95.8942 9.324C96.2182 9.66 96.4462 10.068 96.5782 10.548C96.7102 11.028 96.7762 11.562 96.7762 12.15V17.73C96.3922 17.814 95.8582 17.91 95.1742 18.018C94.4902 18.138 93.6622 18.198 92.6902 18.198C92.0782 18.198 91.5202 18.144 91.0162 18.036C90.5242 17.928 90.0982 17.754 89.7382 17.514C89.3782 17.262 89.1022 16.938 88.9102 16.542C88.7182 16.146 88.6222 15.66 88.6222 15.084C88.6222 14.532 88.7302 14.064 88.9462 13.68C89.1742 13.296 89.4742 12.99 89.8462 12.762C90.2182 12.534 90.6442 12.372 91.1242 12.276C91.6042 12.168 92.1022 12.114 92.6182 12.114C92.9662 12.114 93.2722 12.132 93.5362 12.168C93.8122 12.192 94.0342 12.228 94.2022 12.276V12.024C94.2022 11.568 94.0642 11.202 93.7882 10.926C93.5122 10.65 93.0322 10.512 92.3482 10.512C91.8922 10.512 91.4422 10.548 90.9982 10.62C90.5542 10.68 90.1702 10.77 89.8462 10.89L89.5042 8.73C89.6602 8.682 89.8522 8.634 90.0802 8.586C90.3202 8.526 90.5782 8.478 90.8542 8.442C91.1302 8.394 91.4182 8.358 91.7182 8.334C92.0302 8.298 92.3422 8.28 92.6542 8.28ZM102.963 11.412L104.835 8.532H107.607L104.367 13.086C105.087 13.986 105.741 14.862 106.329 15.714C106.917 16.566 107.385 17.328 107.733 18H104.853C104.757 17.82 104.637 17.598 104.493 17.334C104.349 17.058 104.187 16.776 104.007 16.488C103.827 16.188 103.635 15.894 103.431 15.606C103.239 15.306 103.047 15.036 102.855 14.796C102.675 15.024 102.489 15.276 102.297 15.552C102.117 15.828 101.943 16.11 101.775 16.398C101.607 16.674 101.439 16.95 101.271 17.226C101.115 17.502 100.977 17.76 100.857 18H98.1214C98.2654 17.7 98.4634 17.346 98.7154 16.938C98.9674 16.53 99.2374 16.11 99.5254 15.678C99.8254 15.234 100.137 14.796 100.461 14.364C100.785 13.92 101.103 13.506 101.415 13.122C100.875 12.366 100.335 11.604 99.7954 10.836C99.2554 10.056 98.7214 9.288 98.1934 8.532H101.091L102.963 11.412ZM117.585 13.248C117.585 13.992 117.477 14.676 117.261 15.3C117.045 15.912 116.733 16.44 116.325 16.884C115.917 17.316 115.425 17.652 114.849 17.892C114.285 18.132 113.649 18.252 112.941 18.252C112.245 18.252 111.609 18.132 111.033 17.892C110.469 17.652 109.983 17.316 109.575 16.884C109.167 16.44 108.849 15.912 108.621 15.3C108.393 14.676 108.279 13.992 108.279 13.248C108.279 12.504 108.393 11.826 108.621 11.214C108.861 10.602 109.185 10.08 109.593 9.648C110.013 9.216 110.505 8.88 111.069 8.64C111.645 8.4 112.269 8.28 112.941 8.28C113.625 8.28 114.249 8.4 114.813 8.64C115.389 8.88 115.881 9.216 116.289 9.648C116.697 10.08 117.015 10.602 117.243 11.214C117.471 11.826 117.585 12.504 117.585 13.248ZM114.849 13.248C114.849 12.42 114.681 11.772 114.345 11.304C114.021 10.824 113.553 10.584 112.941 10.584C112.329 10.584 111.855 10.824 111.519 11.304C111.183 11.772 111.015 12.42 111.015 13.248C111.015 14.076 111.183 14.736 111.519 15.228C111.855 15.708 112.329 15.948 112.941 15.948C113.553 15.948 114.021 15.708 114.345 15.228C114.681 14.736 114.849 14.076 114.849 13.248ZM122.344 16.02C122.512 16.044 122.734 16.068 123.01 16.092C123.298 16.104 123.562 16.11 123.802 16.11C124.402 16.11 124.87 16.038 125.206 15.894C125.542 15.738 125.71 15.462 125.71 15.066C125.71 14.682 125.554 14.418 125.242 14.274C124.942 14.118 124.498 14.04 123.91 14.04H122.344V16.02ZM123.856 12.24C124.3 12.24 124.66 12.186 124.936 12.078C125.212 11.958 125.35 11.706 125.35 11.322C125.35 10.962 125.194 10.716 124.882 10.584C124.57 10.452 124.162 10.386 123.658 10.386C123.49 10.386 123.268 10.398 122.992 10.422C122.728 10.434 122.512 10.452 122.344 10.476V12.24H123.856ZM123.766 18.18C123.43 18.18 123.07 18.168 122.686 18.144C122.302 18.12 121.924 18.084 121.552 18.036C121.18 18 120.826 17.958 120.49 17.91C120.166 17.85 119.89 17.796 119.662 17.748V8.676C119.89 8.628 120.166 8.586 120.49 8.55C120.826 8.502 121.18 8.46 121.552 8.424C121.924 8.388 122.302 8.364 122.686 8.352C123.07 8.328 123.43 8.316 123.766 8.316C124.546 8.316 125.2 8.394 125.728 8.55C126.268 8.706 126.7 8.91 127.024 9.162C127.36 9.414 127.6 9.696 127.744 10.008C127.888 10.32 127.96 10.632 127.96 10.944C127.96 11.364 127.858 11.748 127.654 12.096C127.45 12.444 127.192 12.696 126.88 12.852C127.048 12.924 127.216 13.026 127.384 13.158C127.564 13.29 127.726 13.452 127.87 13.644C128.014 13.824 128.128 14.046 128.212 14.31C128.308 14.562 128.356 14.856 128.356 15.192C128.356 15.576 128.278 15.948 128.122 16.308C127.978 16.668 127.726 16.986 127.366 17.262C127.006 17.538 126.532 17.76 125.944 17.928C125.356 18.096 124.63 18.18 123.766 18.18ZM134.038 16.128C134.302 16.128 134.554 16.122 134.794 16.11C135.034 16.098 135.226 16.08 135.37 16.056V14.022C135.262 13.998 135.1 13.974 134.884 13.95C134.668 13.926 134.47 13.914 134.29 13.914C134.038 13.914 133.798 13.932 133.57 13.968C133.354 13.992 133.162 14.046 132.994 14.13C132.826 14.214 132.694 14.328 132.598 14.472C132.502 14.616 132.454 14.796 132.454 15.012C132.454 15.432 132.592 15.726 132.868 15.894C133.156 16.05 133.546 16.128 134.038 16.128ZM133.822 8.28C134.614 8.28 135.274 8.37 135.802 8.55C136.33 8.73 136.75 8.988 137.062 9.324C137.386 9.66 137.614 10.068 137.746 10.548C137.878 11.028 137.944 11.562 137.944 12.15V17.73C137.56 17.814 137.026 17.91 136.342 18.018C135.658 18.138 134.83 18.198 133.858 18.198C133.246 18.198 132.688 18.144 132.184 18.036C131.692 17.928 131.266 17.754 130.906 17.514C130.546 17.262 130.27 16.938 130.078 16.542C129.886 16.146 129.79 15.66 129.79 15.084C129.79 14.532 129.898 14.064 130.114 13.68C130.342 13.296 130.642 12.99 131.014 12.762C131.386 12.534 131.812 12.372 132.292 12.276C132.772 12.168 133.27 12.114 133.786 12.114C134.134 12.114 134.44 12.132 134.704 12.168C134.98 12.192 135.202 12.228 135.37 12.276V12.024C135.37 11.568 135.232 11.202 134.956 10.926C134.68 10.65 134.2 10.512 133.516 10.512C133.06 10.512 132.61 10.548 132.166 10.62C131.722 10.68 131.338 10.77 131.014 10.89L130.672 8.73C130.828 8.682 131.02 8.634 131.248 8.586C131.488 8.526 131.746 8.478 132.022 8.442C132.298 8.394 132.586 8.358 132.886 8.334C133.198 8.298 133.51 8.28 133.822 8.28ZM148.523 18H145.841V14.256H143.051V18H140.369V8.532H143.051V12.06H145.841V8.532H148.523V18ZM159.661 8.532V18H156.961C156.961 17.4 156.967 16.806 156.979 16.218C156.991 15.618 157.003 15.066 157.015 14.562C157.027 14.058 157.039 13.62 157.051 13.248C157.075 12.864 157.087 12.582 157.087 12.402C156.739 12.894 156.391 13.392 156.043 13.896C155.695 14.4 155.359 14.898 155.035 15.39C154.723 15.87 154.423 16.332 154.135 16.776C153.859 17.22 153.613 17.628 153.397 18H151.039V8.532H153.721C153.721 9.132 153.715 9.708 153.703 10.26C153.703 10.8 153.697 11.292 153.685 11.736C153.673 12.18 153.661 12.57 153.649 12.906C153.637 13.23 153.631 13.482 153.631 13.662C154.351 12.606 155.011 11.658 155.611 10.818C156.223 9.978 156.817 9.216 157.393 8.532H159.661ZM161.734 13.338C161.734 12.498 161.86 11.766 162.112 11.142C162.376 10.506 162.718 9.978 163.138 9.558C163.558 9.138 164.038 8.82 164.578 8.604C165.13 8.388 165.694 8.28 166.27 8.28C167.614 8.28 168.676 8.694 169.456 9.522C170.236 10.338 170.626 11.544 170.626 13.14C170.626 13.296 170.62 13.47 170.608 13.662C170.596 13.842 170.584 14.004 170.572 14.148H164.488C164.548 14.7 164.806 15.138 165.262 15.462C165.718 15.786 166.33 15.948 167.098 15.948C167.59 15.948 168.07 15.906 168.538 15.822C169.018 15.726 169.408 15.612 169.708 15.48L170.068 17.658C169.924 17.73 169.732 17.802 169.492 17.874C169.252 17.946 168.982 18.006 168.682 18.054C168.394 18.114 168.082 18.162 167.746 18.198C167.41 18.234 167.074 18.252 166.738 18.252C165.886 18.252 165.142 18.126 164.506 17.874C163.882 17.622 163.36 17.28 162.94 16.848C162.532 16.404 162.226 15.882 162.022 15.282C161.83 14.682 161.734 14.034 161.734 13.338ZM168.034 12.312C168.022 12.084 167.98 11.862 167.908 11.646C167.848 11.43 167.746 11.238 167.602 11.07C167.47 10.902 167.296 10.764 167.08 10.656C166.876 10.548 166.618 10.494 166.306 10.494C166.006 10.494 165.748 10.548 165.532 10.656C165.316 10.752 165.136 10.884 164.992 11.052C164.848 11.22 164.734 11.418 164.65 11.646C164.578 11.862 164.524 12.084 164.488 12.312H168.034ZM175.76 11.502H193.76V13.734H175.76V11.502ZM64.748 33.212C64.748 34.016 64.628 34.73 64.388 35.354C64.148 35.978 63.812 36.5 63.38 36.92C62.96 37.34 62.45 37.664 61.85 37.892C61.262 38.108 60.608 38.216 59.888 38.216C59.288 38.216 58.724 38.174 58.196 38.09C57.68 38.006 57.122 37.85 56.522 37.622L57.026 35.516C57.374 35.636 57.782 35.744 58.25 35.84C58.718 35.936 59.162 35.984 59.582 35.984C59.882 35.984 60.17 35.954 60.446 35.894C60.722 35.834 60.968 35.732 61.184 35.588C61.412 35.444 61.598 35.258 61.742 35.03C61.898 34.79 62 34.502 62.048 34.166H58.448V32.24H62.03C61.934 31.568 61.67 31.106 61.238 30.854C60.818 30.602 60.302 30.476 59.69 30.476C59.234 30.476 58.82 30.518 58.448 30.602C58.088 30.674 57.71 30.77 57.314 30.89L56.81 28.82C57.35 28.628 57.872 28.49 58.376 28.406C58.88 28.322 59.366 28.28 59.834 28.28C60.566 28.28 61.232 28.394 61.832 28.622C62.432 28.838 62.948 29.162 63.38 29.594C63.812 30.014 64.148 30.53 64.388 31.142C64.628 31.754 64.748 32.444 64.748 33.212ZM74.4767 30.728H71.4527V38H68.7707V30.728H65.7467V28.532H74.4767V30.728ZM84.9598 33.248C84.9598 33.992 84.8518 34.676 84.6358 35.3C84.4198 35.912 84.1078 36.44 83.6998 36.884C83.2918 37.316 82.7998 37.652 82.2238 37.892C81.6598 38.132 81.0238 38.252 80.3158 38.252C79.6198 38.252 78.9838 38.132 78.4078 37.892C77.8438 37.652 77.3578 37.316 76.9498 36.884C76.5418 36.44 76.2238 35.912 75.9958 35.3C75.7678 34.676 75.6538 33.992 75.6538 33.248C75.6538 32.504 75.7678 31.826 75.9958 31.214C76.2358 30.602 76.5598 30.08 76.9678 29.648C77.3878 29.216 77.8798 28.88 78.4438 28.64C79.0198 28.4 79.6438 28.28 80.3158 28.28C80.9998 28.28 81.6238 28.4 82.1878 28.64C82.7638 28.88 83.2558 29.216 83.6638 29.648C84.0718 30.08 84.3898 30.602 84.6178 31.214C84.8458 31.826 84.9598 32.504 84.9598 33.248ZM82.2238 33.248C82.2238 32.42 82.0558 31.772 81.7198 31.304C81.3958 30.824 80.9278 30.584 80.3158 30.584C79.7038 30.584 79.2298 30.824 78.8938 31.304C78.5578 31.772 78.3898 32.42 78.3898 33.248C78.3898 34.076 78.5578 34.736 78.8938 35.228C79.2298 35.708 79.7038 35.948 80.3158 35.948C80.9278 35.948 81.3958 35.708 81.7198 35.228C82.0558 34.736 82.2238 34.076 82.2238 33.248ZM95.6096 30.728C95.5976 31.076 95.5796 31.448 95.5556 31.844C95.5436 32.228 95.5136 32.618 95.4656 33.014C95.4176 33.398 95.3516 33.776 95.2676 34.148C95.1956 34.52 95.0996 34.868 94.9796 35.192C94.8356 35.576 94.6496 35.936 94.4216 36.272C94.2056 36.596 93.9236 36.89 93.5756 37.154C93.2396 37.418 92.8256 37.64 92.3336 37.82C91.8536 37.988 91.2896 38.102 90.6416 38.162L90.2816 35.93C90.8936 35.81 91.3676 35.642 91.7036 35.426C92.0396 35.198 92.2916 34.91 92.4596 34.562C92.5916 34.262 92.6936 33.914 92.7656 33.518C92.8496 33.122 92.9096 32.708 92.9456 32.276C92.9816 31.832 92.9996 31.382 92.9996 30.926C93.0116 30.47 93.0176 30.032 93.0176 29.612V28.532H100.128V38H97.4456V30.728H95.6096ZM102.197 33.338C102.197 32.498 102.323 31.766 102.575 31.142C102.839 30.506 103.181 29.978 103.601 29.558C104.021 29.138 104.501 28.82 105.041 28.604C105.593 28.388 106.157 28.28 106.733 28.28C108.077 28.28 109.139 28.694 109.919 29.522C110.699 30.338 111.089 31.544 111.089 33.14C111.089 33.296 111.083 33.47 111.071 33.662C111.059 33.842 111.047 34.004 111.035 34.148H104.951C105.011 34.7 105.269 35.138 105.725 35.462C106.181 35.786 106.793 35.948 107.561 35.948C108.053 35.948 108.533 35.906 109.001 35.822C109.481 35.726 109.871 35.612 110.171 35.48L110.531 37.658C110.387 37.73 110.195 37.802 109.955 37.874C109.715 37.946 109.445 38.006 109.145 38.054C108.857 38.114 108.545 38.162 108.209 38.198C107.873 38.234 107.537 38.252 107.201 38.252C106.349 38.252 105.605 38.126 104.969 37.874C104.345 37.622 103.823 37.28 103.403 36.848C102.995 36.404 102.689 35.882 102.485 35.282C102.293 34.682 102.197 34.034 102.197 33.338ZM108.497 32.312C108.485 32.084 108.443 31.862 108.371 31.646C108.311 31.43 108.209 31.238 108.065 31.07C107.933 30.902 107.759 30.764 107.543 30.656C107.339 30.548 107.081 30.494 106.769 30.494C106.469 30.494 106.211 30.548 105.995 30.656C105.779 30.752 105.599 30.884 105.455 31.052C105.311 31.22 105.197 31.418 105.113 31.646C105.041 31.862 104.987 32.084 104.951 32.312H108.497ZM119.872 30.728H115.84V38H113.158V28.532H119.872V30.728ZM123.997 31.844C124.261 31.592 124.537 31.316 124.825 31.016C125.125 30.716 125.413 30.422 125.689 30.134C125.965 29.834 126.229 29.546 126.481 29.27C126.733 28.994 126.955 28.748 127.147 28.532H130.405C130.165 28.784 129.865 29.096 129.505 29.468C129.157 29.84 128.785 30.23 128.389 30.638C127.993 31.034 127.591 31.43 127.183 31.826C126.787 32.222 126.409 32.576 126.049 32.888C126.409 33.164 126.793 33.506 127.201 33.914C127.609 34.322 128.005 34.76 128.389 35.228C128.785 35.696 129.157 36.17 129.505 36.65C129.865 37.13 130.171 37.58 130.423 38H127.363C127.147 37.676 126.901 37.34 126.625 36.992C126.349 36.632 126.061 36.284 125.761 35.948C125.461 35.6 125.155 35.276 124.843 34.976C124.543 34.676 124.261 34.418 123.997 34.202V38H121.315V28.532H123.997V31.844ZM140.067 33.248C140.067 33.992 139.959 34.676 139.743 35.3C139.527 35.912 139.215 36.44 138.807 36.884C138.399 37.316 137.907 37.652 137.331 37.892C136.767 38.132 136.131 38.252 135.423 38.252C134.727 38.252 134.091 38.132 133.515 37.892C132.951 37.652 132.465 37.316 132.057 36.884C131.649 36.44 131.331 35.912 131.103 35.3C130.875 34.676 130.761 33.992 130.761 33.248C130.761 32.504 130.875 31.826 131.103 31.214C131.343 30.602 131.667 30.08 132.075 29.648C132.495 29.216 132.987 28.88 133.551 28.64C134.127 28.4 134.751 28.28 135.423 28.28C136.107 28.28 136.731 28.4 137.295 28.64C137.871 28.88 138.363 29.216 138.771 29.648C139.179 30.08 139.497 30.602 139.725 31.214C139.953 31.826 140.067 32.504 140.067 33.248ZM137.331 33.248C137.331 32.42 137.163 31.772 136.827 31.304C136.503 30.824 136.035 30.584 135.423 30.584C134.811 30.584 134.337 30.824 134.001 31.304C133.665 31.772 133.497 32.42 133.497 33.248C133.497 34.076 133.665 34.736 134.001 35.228C134.337 35.708 134.811 35.948 135.423 35.948C136.035 35.948 136.503 35.708 136.827 35.228C137.163 34.736 137.331 34.076 137.331 33.248ZM144.899 28.748C144.899 29.72 144.863 30.626 144.791 31.466C144.719 32.306 144.623 33.158 144.503 34.022H142.451C142.331 33.158 142.229 32.306 142.145 31.466C142.073 30.626 142.037 29.72 142.037 28.748V25.526H144.899V28.748ZM145.133 36.578C145.133 37.106 144.959 37.514 144.611 37.802C144.275 38.09 143.891 38.234 143.459 38.234C143.027 38.234 142.637 38.09 142.289 37.802C141.953 37.514 141.785 37.106 141.785 36.578C141.785 36.05 141.953 35.642 142.289 35.354C142.637 35.066 143.027 34.922 143.459 34.922C143.891 34.922 144.275 35.066 144.611 35.354C144.959 35.642 145.133 36.05 145.133 36.578ZM57.83 47.9V49.66H58.69C59.1767 49.66 59.61 49.7 59.99 49.78C60.3767 49.86 60.7033 49.99 60.97 50.17C61.2367 50.3433 61.44 50.57 61.58 50.85C61.72 51.1233 61.79 51.46 61.79 51.86C61.79 52.5933 61.5233 53.1467 60.99 53.52C60.4567 53.8867 59.7033 54.07 58.73 54.07C58.59 54.07 58.4367 54.0667 58.27 54.06C58.11 54.0533 57.9467 54.0433 57.78 54.03C57.62 54.0167 57.46 54 57.3 53.98C57.14 53.96 56.9933 53.9333 56.86 53.9V47.07H61.14V47.9H57.83ZM58.81 53.22C59.07 53.22 59.3167 53.2 59.55 53.16C59.79 53.12 60 53.05 60.18 52.95C60.36 52.8433 60.5033 52.7033 60.61 52.53C60.7167 52.3567 60.77 52.1367 60.77 51.87C60.77 51.59 60.72 51.36 60.62 51.18C60.5267 51 60.39 50.8567 60.21 50.75C60.03 50.6433 59.8067 50.57 59.54 50.53C59.28 50.4833 58.9833 50.46 58.65 50.46H57.83V53.19C57.9033 53.1967 57.99 53.2033 58.09 53.21C58.1767 53.2167 58.28 53.22 58.4 53.22C58.52 53.22 58.6567 53.22 58.81 53.22ZM62.7014 51.41C62.7014 50.95 62.7681 50.55 62.9014 50.21C63.0347 49.8633 63.2114 49.5767 63.4314 49.35C63.6514 49.1233 63.9047 48.9533 64.1914 48.84C64.4781 48.7267 64.7714 48.67 65.0714 48.67C65.7714 48.67 66.3081 48.89 66.6814 49.33C67.0547 49.7633 67.2414 50.4267 67.2414 51.32C67.2414 51.36 67.2414 51.4133 67.2414 51.48C67.2414 51.54 67.2381 51.5967 67.2314 51.65H63.6714C63.7114 52.19 63.8681 52.6 64.1414 52.88C64.4147 53.16 64.8414 53.3 65.4214 53.3C65.7481 53.3 66.0214 53.2733 66.2414 53.22C66.4681 53.16 66.6381 53.1033 66.7514 53.05L66.8814 53.83C66.7681 53.89 66.5681 53.9533 66.2814 54.02C66.0014 54.0867 65.6814 54.12 65.3214 54.12C64.8681 54.12 64.4747 54.0533 64.1414 53.92C63.8147 53.78 63.5447 53.59 63.3314 53.35C63.1181 53.11 62.9581 52.8267 62.8514 52.5C62.7514 52.1667 62.7014 51.8033 62.7014 51.41ZM66.2714 50.9C66.2781 50.48 66.1714 50.1367 65.9514 49.87C65.7381 49.5967 65.4414 49.46 65.0614 49.46C64.8481 49.46 64.6581 49.5033 64.4914 49.59C64.3314 49.67 64.1947 49.7767 64.0814 49.91C63.9681 50.0433 63.8781 50.1967 63.8114 50.37C63.7514 50.5433 63.7114 50.72 63.6914 50.9H66.2714ZM69.7802 48.67C70.0802 48.67 70.3602 48.7 70.6202 48.76C70.8802 48.82 71.1035 48.91 71.2902 49.03C71.4768 49.15 71.6235 49.3 71.7302 49.48C71.8368 49.66 71.8902 49.87 71.8902 50.11C71.8902 50.2633 71.8635 50.4033 71.8102 50.53C71.7568 50.6567 71.6902 50.77 71.6102 50.87C71.5302 50.97 71.4402 51.0567 71.3402 51.13C71.2468 51.1967 71.1568 51.2433 71.0702 51.27C71.3768 51.3633 71.6168 51.53 71.7902 51.77C71.9702 52.0033 72.0602 52.3 72.0602 52.66C72.0602 53.1533 71.8602 53.52 71.4602 53.76C71.0602 54 70.5168 54.12 69.8302 54.12C69.4102 54.12 69.0468 54.0867 68.7402 54.02C68.4402 53.9533 68.2268 53.89 68.1002 53.83L68.2602 53.04C68.3668 53.08 68.5568 53.1367 68.8302 53.21C69.1102 53.2767 69.4435 53.31 69.8302 53.31C70.2502 53.31 70.5702 53.2467 70.7902 53.12C71.0102 52.9867 71.1202 52.79 71.1202 52.53C71.1202 52.3433 71.0768 52.1933 70.9902 52.08C70.9102 51.96 70.8068 51.87 70.6802 51.81C70.5535 51.75 70.4168 51.71 70.2702 51.69C70.1235 51.67 69.9868 51.66 69.8602 51.66H68.9902V50.92H69.8302C69.9502 50.92 70.0735 50.9133 70.2002 50.9C70.3335 50.88 70.4535 50.8433 70.5602 50.79C70.6735 50.7367 70.7668 50.6633 70.8402 50.57C70.9135 50.47 70.9502 50.34 70.9502 50.18C70.9502 50.0533 70.9168 49.9467 70.8502 49.86C70.7902 49.7667 70.7068 49.69 70.6002 49.63C70.4935 49.57 70.3668 49.5267 70.2202 49.5C70.0802 49.4667 69.9335 49.45 69.7802 49.45C69.6602 49.45 69.5302 49.46 69.3902 49.48C69.2502 49.5 69.1135 49.5267 68.9802 49.56C68.8468 49.5867 68.7268 49.6167 68.6202 49.65C68.5135 49.6833 68.4368 49.7133 68.3902 49.74L68.2202 48.94C68.2735 48.92 68.3568 48.8933 68.4702 48.86C68.5835 48.8267 68.7102 48.7967 68.8502 48.77C68.9968 48.7433 69.1502 48.72 69.3102 48.7C69.4702 48.68 69.6268 48.67 69.7802 48.67ZM77.9427 51.4C77.9427 51.8133 77.8827 52.1867 77.7627 52.52C77.6427 52.8533 77.4727 53.14 77.2527 53.38C77.0394 53.62 76.7827 53.8067 76.4827 53.94C76.1827 54.0667 75.8561 54.13 75.5027 54.13C75.1494 54.13 74.8227 54.0667 74.5227 53.94C74.2227 53.8067 73.9627 53.62 73.7427 53.38C73.5294 53.14 73.3627 52.8533 73.2427 52.52C73.1227 52.1867 73.0627 51.8133 73.0627 51.4C73.0627 50.9933 73.1227 50.6233 73.2427 50.29C73.3627 49.95 73.5294 49.66 73.7427 49.42C73.9627 49.18 74.2227 48.9967 74.5227 48.87C74.8227 48.7367 75.1494 48.67 75.5027 48.67C75.8561 48.67 76.1827 48.7367 76.4827 48.87C76.7827 48.9967 77.0394 49.18 77.2527 49.42C77.4727 49.66 77.6427 49.95 77.7627 50.29C77.8827 50.6233 77.9427 50.9933 77.9427 51.4ZM76.9727 51.4C76.9727 50.8133 76.8394 50.35 76.5727 50.01C76.3127 49.6633 75.9561 49.49 75.5027 49.49C75.0494 49.49 74.6894 49.6633 74.4227 50.01C74.1627 50.35 74.0327 50.8133 74.0327 51.4C74.0327 51.9867 74.1627 52.4533 74.4227 52.8C74.6894 53.14 75.0494 53.31 75.5027 53.31C75.9561 53.31 76.3127 53.14 76.5727 52.8C76.8394 52.4533 76.9727 51.9867 76.9727 51.4ZM83.4312 54H82.5012V49.58H80.1812V54H79.2512V48.8H83.4312V54ZM86.7924 53.33C87.0124 53.33 87.2058 53.3267 87.3724 53.32C87.5458 53.3067 87.6891 53.2867 87.8024 53.26V51.71C87.7358 51.6767 87.6258 51.65 87.4724 51.63C87.3258 51.6033 87.1458 51.59 86.9324 51.59C86.7924 51.59 86.6424 51.6 86.4824 51.62C86.3291 51.64 86.1858 51.6833 86.0524 51.75C85.9258 51.81 85.8191 51.8967 85.7324 52.01C85.6458 52.1167 85.6024 52.26 85.6024 52.44C85.6024 52.7733 85.7091 53.0067 85.9224 53.14C86.1358 53.2667 86.4258 53.33 86.7924 53.33ZM86.7124 48.67C87.0858 48.67 87.3991 48.72 87.6524 48.82C87.9124 48.9133 88.1191 49.05 88.2724 49.23C88.4324 49.4033 88.5458 49.6133 88.6124 49.86C88.6791 50.1 88.7124 50.3667 88.7124 50.66V53.91C88.6324 53.9233 88.5191 53.9433 88.3724 53.97C88.2324 53.99 88.0724 54.01 87.8924 54.03C87.7124 54.05 87.5158 54.0667 87.3024 54.08C87.0958 54.1 86.8891 54.11 86.6824 54.11C86.3891 54.11 86.1191 54.08 85.8724 54.02C85.6258 53.96 85.4124 53.8667 85.2324 53.74C85.0524 53.6067 84.9124 53.4333 84.8124 53.22C84.7124 53.0067 84.6624 52.75 84.6624 52.45C84.6624 52.1633 84.7191 51.9167 84.8324 51.71C84.9524 51.5033 85.1124 51.3367 85.3124 51.21C85.5124 51.0833 85.7458 50.99 86.0124 50.93C86.2791 50.87 86.5591 50.84 86.8524 50.84C86.9458 50.84 87.0424 50.8467 87.1424 50.86C87.2424 50.8667 87.3358 50.88 87.4224 50.9C87.5158 50.9133 87.5958 50.9267 87.6624 50.94C87.7291 50.9533 87.7758 50.9633 87.8024 50.97V50.71C87.8024 50.5567 87.7858 50.4067 87.7524 50.26C87.7191 50.1067 87.6591 49.9733 87.5724 49.86C87.4858 49.74 87.3658 49.6467 87.2124 49.58C87.0658 49.5067 86.8724 49.47 86.6324 49.47C86.3258 49.47 86.0558 49.4933 85.8224 49.54C85.5958 49.58 85.4258 49.6233 85.3124 49.67L85.2024 48.9C85.3224 48.8467 85.5224 48.7967 85.8024 48.75C86.0824 48.6967 86.3858 48.67 86.7124 48.67ZM92.517 54.12C92.097 54.12 91.727 54.0533 91.407 53.92C91.0937 53.7867 90.827 53.6 90.607 53.36C90.3937 53.12 90.2337 52.8367 90.127 52.51C90.0204 52.1767 89.967 51.81 89.967 51.41C89.967 51.01 90.0237 50.6433 90.137 50.31C90.257 49.9767 90.4237 49.69 90.637 49.45C90.8504 49.2033 91.1104 49.0133 91.417 48.88C91.7304 48.74 92.077 48.67 92.457 48.67C92.6904 48.67 92.9237 48.69 93.157 48.73C93.3904 48.77 93.6137 48.8333 93.827 48.92L93.617 49.71C93.477 49.6433 93.3137 49.59 93.127 49.55C92.947 49.51 92.7537 49.49 92.547 49.49C92.027 49.49 91.627 49.6533 91.347 49.98C91.0737 50.3067 90.937 50.7833 90.937 51.41C90.937 51.69 90.967 51.9467 91.027 52.18C91.0937 52.4133 91.1937 52.6133 91.327 52.78C91.467 52.9467 91.6437 53.0767 91.857 53.17C92.0704 53.2567 92.3304 53.3 92.637 53.3C92.8837 53.3 93.107 53.2767 93.307 53.23C93.507 53.1833 93.6637 53.1333 93.777 53.08L93.907 53.86C93.8537 53.8933 93.777 53.9267 93.677 53.96C93.577 53.9867 93.4637 54.01 93.337 54.03C93.2104 54.0567 93.0737 54.0767 92.927 54.09C92.787 54.11 92.6504 54.12 92.517 54.12ZM99.1655 54H98.2355V51.7H95.8355V54H94.9055V48.8H95.8355V50.92H98.2355V48.8H99.1655V54ZM105.355 51.4C105.355 51.8133 105.295 52.1867 105.175 52.52C105.055 52.8533 104.885 53.14 104.665 53.38C104.452 53.62 104.195 53.8067 103.895 53.94C103.595 54.0667 103.268 54.13 102.915 54.13C102.562 54.13 102.235 54.0667 101.935 53.94C101.635 53.8067 101.375 53.62 101.155 53.38C100.942 53.14 100.775 52.8533 100.655 52.52C100.535 52.1867 100.475 51.8133 100.475 51.4C100.475 50.9933 100.535 50.6233 100.655 50.29C100.775 49.95 100.942 49.66 101.155 49.42C101.375 49.18 101.635 48.9967 101.935 48.87C102.235 48.7367 102.562 48.67 102.915 48.67C103.268 48.67 103.595 48.7367 103.895 48.87C104.195 48.9967 104.452 49.18 104.665 49.42C104.885 49.66 105.055 49.95 105.175 50.29C105.295 50.6233 105.355 50.9933 105.355 51.4ZM104.385 51.4C104.385 50.8133 104.252 50.35 103.985 50.01C103.725 49.6633 103.368 49.49 102.915 49.49C102.462 49.49 102.102 49.6633 101.835 50.01C101.575 50.35 101.445 50.8133 101.445 51.4C101.445 51.9867 101.575 52.4533 101.835 52.8C102.102 53.14 102.462 53.31 102.915 53.31C103.368 53.31 103.725 53.14 103.985 52.8C104.252 52.4533 104.385 51.9867 104.385 51.4ZM108.923 54.12C108.503 54.12 108.133 54.0533 107.813 53.92C107.5 53.7867 107.233 53.6 107.013 53.36C106.8 53.12 106.64 52.8367 106.533 52.51C106.427 52.1767 106.373 51.81 106.373 51.41C106.373 51.01 106.43 50.6433 106.543 50.31C106.663 49.9767 106.83 49.69 107.043 49.45C107.257 49.2033 107.517 49.0133 107.823 48.88C108.137 48.74 108.483 48.67 108.863 48.67C109.097 48.67 109.33 48.69 109.563 48.73C109.797 48.77 110.02 48.8333 110.233 48.92L110.023 49.71C109.883 49.6433 109.72 49.59 109.533 49.55C109.353 49.51 109.16 49.49 108.953 49.49C108.433 49.49 108.033 49.6533 107.753 49.98C107.48 50.3067 107.343 50.7833 107.343 51.41C107.343 51.69 107.373 51.9467 107.433 52.18C107.5 52.4133 107.6 52.6133 107.733 52.78C107.873 52.9467 108.05 53.0767 108.263 53.17C108.477 53.2567 108.737 53.3 109.043 53.3C109.29 53.3 109.513 53.2767 109.713 53.23C109.913 53.1833 110.07 53.1333 110.183 53.08L110.313 53.86C110.26 53.8933 110.183 53.9267 110.083 53.96C109.983 53.9867 109.87 54.01 109.743 54.03C109.617 54.0567 109.48 54.0767 109.333 54.09C109.193 54.11 109.057 54.12 108.923 54.12ZM115.128 48.8V49.58H113.438V54H112.508V49.58H110.818V48.8H115.128ZM118.057 53.35C118.45 53.35 118.76 53.2733 118.987 53.12C119.214 52.9667 119.327 52.72 119.327 52.38C119.327 52.2133 119.294 52.07 119.227 51.95C119.16 51.83 119.067 51.7333 118.947 51.66C118.834 51.58 118.7 51.5233 118.547 51.49C118.394 51.45 118.23 51.43 118.057 51.43C117.877 51.43 117.69 51.4367 117.497 51.45C117.31 51.4567 117.15 51.4767 117.017 51.51V53.3C117.057 53.3067 117.117 53.3133 117.197 53.32C117.277 53.3267 117.364 53.3333 117.457 53.34C117.557 53.34 117.657 53.3433 117.757 53.35C117.864 53.35 117.964 53.35 118.057 53.35ZM116.087 53.89V48.8H117.017V50.79C117.07 50.7767 117.14 50.7633 117.227 50.75C117.32 50.7367 117.417 50.7233 117.517 50.71C117.624 50.6967 117.734 50.6867 117.847 50.68C117.96 50.6733 118.067 50.67 118.167 50.67C118.454 50.67 118.724 50.7033 118.977 50.77C119.23 50.83 119.45 50.93 119.637 51.07C119.83 51.2033 119.984 51.38 120.097 51.6C120.21 51.8133 120.267 52.07 120.267 52.37C120.267 52.6833 120.214 52.95 120.107 53.17C120 53.39 119.847 53.57 119.647 53.71C119.447 53.85 119.207 53.95 118.927 54.01C118.654 54.0767 118.347 54.11 118.007 54.11C117.674 54.11 117.347 54.09 117.027 54.05C116.707 54.0167 116.394 53.9633 116.087 53.89ZM122.865 50.61H132.865V51.4H122.865V50.61ZM140.22 54H139.29V51.7H136.89V54H135.96V48.8H136.89V50.92H139.29V48.8H140.22V54ZM143.58 53.33C143.8 53.33 143.993 53.3267 144.16 53.32C144.333 53.3067 144.476 53.2867 144.59 53.26V51.71C144.523 51.6767 144.413 51.65 144.26 51.63C144.113 51.6033 143.933 51.59 143.72 51.59C143.58 51.59 143.43 51.6 143.27 51.62C143.116 51.64 142.973 51.6833 142.84 51.75C142.713 51.81 142.606 51.8967 142.52 52.01C142.433 52.1167 142.39 52.26 142.39 52.44C142.39 52.7733 142.496 53.0067 142.71 53.14C142.923 53.2667 143.213 53.33 143.58 53.33ZM143.5 48.67C143.873 48.67 144.186 48.72 144.44 48.82C144.7 48.9133 144.906 49.05 145.06 49.23C145.22 49.4033 145.333 49.6133 145.4 49.86C145.466 50.1 145.5 50.3667 145.5 50.66V53.91C145.42 53.9233 145.306 53.9433 145.16 53.97C145.02 53.99 144.86 54.01 144.68 54.03C144.5 54.05 144.303 54.0667 144.09 54.08C143.883 54.1 143.676 54.11 143.47 54.11C143.176 54.11 142.906 54.08 142.66 54.02C142.413 53.96 142.2 53.8667 142.02 53.74C141.84 53.6067 141.7 53.4333 141.6 53.22C141.5 53.0067 141.45 52.75 141.45 52.45C141.45 52.1633 141.506 51.9167 141.62 51.71C141.74 51.5033 141.9 51.3367 142.1 51.21C142.3 51.0833 142.533 50.99 142.8 50.93C143.066 50.87 143.346 50.84 143.64 50.84C143.733 50.84 143.83 50.8467 143.93 50.86C144.03 50.8667 144.123 50.88 144.21 50.9C144.303 50.9133 144.383 50.9267 144.45 50.94C144.516 50.9533 144.563 50.9633 144.59 50.97V50.71C144.59 50.5567 144.573 50.4067 144.54 50.26C144.506 50.1067 144.446 49.9733 144.36 49.86C144.273 49.74 144.153 49.6467 144 49.58C143.853 49.5067 143.66 49.47 143.42 49.47C143.113 49.47 142.843 49.4933 142.61 49.54C142.383 49.58 142.213 49.6233 142.1 49.67L141.99 48.9C142.11 48.8467 142.31 48.7967 142.59 48.75C142.87 48.6967 143.173 48.67 143.5 48.67ZM147.044 54V48.8H147.974V53.23H149.894V48.8H150.824V53.23H152.744V48.8H153.674V54H147.044ZM161.771 54H160.841V49.58H158.521V54H157.591V48.8H161.771V54ZM166.982 51.41C166.982 50.8033 166.832 50.3367 166.532 50.01C166.232 49.6833 165.832 49.52 165.332 49.52C165.052 49.52 164.832 49.53 164.672 49.55C164.519 49.57 164.396 49.5933 164.302 49.62V52.9C164.416 52.9933 164.579 53.0833 164.792 53.17C165.006 53.2567 165.239 53.3 165.492 53.3C165.759 53.3 165.986 53.2533 166.172 53.16C166.366 53.06 166.522 52.9267 166.642 52.76C166.762 52.5867 166.849 52.3867 166.902 52.16C166.956 51.9267 166.982 51.6767 166.982 51.41ZM167.952 51.41C167.952 51.8033 167.899 52.1667 167.792 52.5C167.692 52.8333 167.542 53.12 167.342 53.36C167.142 53.6 166.896 53.7867 166.602 53.92C166.316 54.0533 165.986 54.12 165.612 54.12C165.312 54.12 165.046 54.08 164.812 54C164.586 53.92 164.416 53.8433 164.302 53.77V55.85H163.372V48.96C163.592 48.9067 163.866 48.85 164.192 48.79C164.526 48.7233 164.909 48.69 165.342 48.69C165.742 48.69 166.102 48.7533 166.422 48.88C166.742 49.0067 167.016 49.1867 167.242 49.42C167.469 49.6533 167.642 49.94 167.762 50.28C167.889 50.6133 167.952 50.99 167.952 51.41ZM173.631 48.8V54H172.731V50.04C172.531 50.2933 172.311 50.59 172.071 50.93C171.831 51.27 171.591 51.6233 171.351 51.99C171.111 52.35 170.881 52.7067 170.661 53.06C170.441 53.4133 170.251 53.7267 170.091 54H169.261V48.8H170.161V52.54C170.334 52.2533 170.531 51.94 170.751 51.6C170.971 51.2533 171.198 50.9133 171.431 50.58C171.671 50.24 171.908 49.9167 172.141 49.61C172.381 49.2967 172.604 49.0267 172.811 48.8H173.631ZM179.818 51.4C179.818 51.8133 179.758 52.1867 179.638 52.52C179.518 52.8533 179.348 53.14 179.128 53.38C178.914 53.62 178.658 53.8067 178.358 53.94C178.058 54.0667 177.731 54.13 177.378 54.13C177.024 54.13 176.698 54.0667 176.398 53.94C176.098 53.8067 175.838 53.62 175.618 53.38C175.404 53.14 175.238 52.8533 175.118 52.52C174.998 52.1867 174.938 51.8133 174.938 51.4C174.938 50.9933 174.998 50.6233 175.118 50.29C175.238 49.95 175.404 49.66 175.618 49.42C175.838 49.18 176.098 48.9967 176.398 48.87C176.698 48.7367 177.024 48.67 177.378 48.67C177.731 48.67 178.058 48.7367 178.358 48.87C178.658 48.9967 178.914 49.18 179.128 49.42C179.348 49.66 179.518 49.95 179.638 50.29C179.758 50.6233 179.818 50.9933 179.818 51.4ZM178.848 51.4C178.848 50.8133 178.714 50.35 178.448 50.01C178.188 49.6633 177.831 49.49 177.378 49.49C176.924 49.49 176.564 49.6633 176.298 50.01C176.038 50.35 175.908 50.8133 175.908 51.4C175.908 51.9867 176.038 52.4533 176.298 52.8C176.564 53.14 176.924 53.31 177.378 53.31C177.831 53.31 178.188 53.14 178.448 52.8C178.714 52.4533 178.848 51.9867 178.848 51.4ZM184.736 51.41C184.736 50.8033 184.586 50.3367 184.286 50.01C183.986 49.6833 183.586 49.52 183.086 49.52C182.806 49.52 182.586 49.53 182.426 49.55C182.273 49.57 182.15 49.5933 182.056 49.62V52.9C182.17 52.9933 182.333 53.0833 182.546 53.17C182.76 53.2567 182.993 53.3 183.246 53.3C183.513 53.3 183.74 53.2533 183.926 53.16C184.12 53.06 184.276 52.9267 184.396 52.76C184.516 52.5867 184.603 52.3867 184.656 52.16C184.71 51.9267 184.736 51.6767 184.736 51.41ZM185.706 51.41C185.706 51.8033 185.653 52.1667 185.546 52.5C185.446 52.8333 185.296 53.12 185.096 53.36C184.896 53.6 184.65 53.7867 184.356 53.92C184.07 54.0533 183.74 54.12 183.366 54.12C183.066 54.12 182.8 54.08 182.566 54C182.34 53.92 182.17 53.8433 182.056 53.77V55.85H181.126V48.96C181.346 48.9067 181.62 48.85 181.946 48.79C182.28 48.7233 182.663 48.69 183.096 48.69C183.496 48.69 183.856 48.7533 184.176 48.88C184.496 49.0067 184.77 49.1867 184.996 49.42C185.223 49.6533 185.396 49.94 185.516 50.28C185.643 50.6133 185.706 50.99 185.706 51.41ZM191.385 48.8V54H190.485V50.04C190.285 50.2933 190.065 50.59 189.825 50.93C189.585 51.27 189.345 51.6233 189.105 51.99C188.865 52.35 188.635 52.7067 188.415 53.06C188.195 53.4133 188.005 53.7267 187.845 54H187.015V48.8H187.915V52.54C188.088 52.2533 188.285 51.94 188.505 51.6C188.725 51.2533 188.952 50.9133 189.185 50.58C189.425 50.24 189.662 49.9167 189.895 49.61C190.135 49.2967 190.358 49.0267 190.565 48.8H191.385ZM196.652 48.8V49.58H194.962V54H194.032V49.58H192.342V48.8H196.652ZM197.321 51.41C197.321 50.95 197.387 50.55 197.521 50.21C197.654 49.8633 197.831 49.5767 198.051 49.35C198.271 49.1233 198.524 48.9533 198.811 48.84C199.097 48.7267 199.391 48.67 199.691 48.67C200.391 48.67 200.927 48.89 201.301 49.33C201.674 49.7633 201.861 50.4267 201.861 51.32C201.861 51.36 201.861 51.4133 201.861 51.48C201.861 51.54 201.857 51.5967 201.851 51.65H198.291C198.331 52.19 198.487 52.6 198.761 52.88C199.034 53.16 199.461 53.3 200.041 53.3C200.367 53.3 200.641 53.2733 200.861 53.22C201.087 53.16 201.257 53.1033 201.371 53.05L201.501 53.83C201.387 53.89 201.187 53.9533 200.901 54.02C200.621 54.0867 200.301 54.12 199.941 54.12C199.487 54.12 199.094 54.0533 198.761 53.92C198.434 53.78 198.164 53.59 197.951 53.35C197.737 53.11 197.577 52.8267 197.471 52.5C197.371 52.1667 197.321 51.8033 197.321 51.41ZM200.891 50.9C200.897 50.48 200.791 50.1367 200.571 49.87C200.357 49.5967 200.061 49.46 199.681 49.46C199.467 49.46 199.277 49.5033 199.111 49.59C198.951 49.67 198.814 49.7767 198.701 49.91C198.587 50.0433 198.497 50.1967 198.431 50.37C198.371 50.5433 198.331 50.72 198.311 50.9H200.891ZM206.866 48.8V49.58H205.176V54H204.246V49.58H202.556V48.8H206.866Z" fill="#2787F5"/>
</svg>
